<svg width="128" height="129" viewBox="0 0 128 129" fill="none" xmlns="http://www.w3.org/2000/svg">
<path d="M62.7513 59.5228C62.814 60.2999 63.4616 60.8994 64.2412 60.9022C65.0208 60.9049 65.6726 60.3099 65.7407 59.5332C68.4972 28.1045 94.5216 3.34964 126.482 2.58775C125.716 34.6971 100.733 60.8129 69.0924 63.3665C68.3153 63.4292 67.7158 64.0768 67.7131 64.8564C67.7104 65.6361 68.3054 66.2878 69.082 66.3559C100.511 69.1124 125.266 95.1368 126.028 127.097C93.9182 126.332 67.8024 101.348 65.2487 69.7076C65.186 68.9305 64.5384 68.331 63.7588 68.3283C62.9792 68.3256 62.3274 68.9206 62.2593 69.6973C59.5028 101.126 33.4784 125.881 1.51808 126.643C2.28354 94.5334 27.2671 68.4176 58.9076 65.864C59.6847 65.8012 60.2842 65.1537 60.2869 64.374C60.2896 63.5944 59.6946 62.9427 58.918 62.8746C27.4893 60.1181 2.73436 34.0937 1.97247 2.13331C34.0818 2.89878 60.1976 27.8823 62.7513 59.5228Z" stroke="#F269AF" stroke-width="3" stroke-linejoin="round"/>
</svg>
