<svg width="128" height="129" viewBox="0 0 128 129" fill="none" xmlns="http://www.w3.org/2000/svg">
    <g clip-path="url(#clip0_863_268)">
        <path d="M64 127.542C63.802 127.542 63.4282 127.442 62.8495 126.78C62.2727 126.121 61.66 125.087 61.0014 123.667C59.8704 121.228 58.748 117.979 57.4623 114.257C57.2507 113.644 57.0347 113.019 56.8135 112.382C53.7392 103.534 49.717 92.6373 42.8475 85.7677C35.9884 78.9086 25.1109 74.6557 16.2492 71.4622C15.2985 71.1196 14.3726 70.7898 13.4766 70.4707C10.1236 69.2765 7.18791 68.2309 4.93146 67.2178C3.50071 66.5754 2.4528 65.9926 1.78273 65.4579C1.0774 64.8951 1.07357 64.6168 1.07357 64.6151C1.07357 64.6135 1.07738 64.3351 1.78268 63.7724C2.45275 63.2377 3.50064 62.6549 4.93139 62.0125C7.18785 60.9994 10.1235 59.9538 13.4766 58.7596C14.3726 58.4404 15.2984 58.1107 16.2491 57.7681C25.1109 54.5746 35.9884 50.3217 42.8475 43.4626C49.7198 36.5902 53.6806 25.6881 56.7233 16.8436C56.9162 16.2827 57.1053 15.7305 57.291 15.1883C58.5964 11.376 59.7353 8.04995 60.8961 5.56751C61.5589 4.15017 62.1796 3.11987 62.7679 2.46264C63.3527 1.80925 63.752 1.68866 64 1.68866C64.2481 1.68866 64.6474 1.80927 65.2322 2.46267C65.8205 3.11991 66.4412 4.15023 67.104 5.56757C68.2649 8.05004 69.4038 11.3761 70.7092 15.1884C70.8948 15.7307 71.0839 16.2828 71.2768 16.8437C74.3195 25.6881 78.2803 36.5902 85.1526 43.4625C92.0169 50.3268 102.904 54.4659 111.759 57.6005C112.548 57.8799 113.32 58.151 114.073 58.4149C117.614 59.6579 120.71 60.7445 123.06 61.817C124.486 62.4674 125.527 63.065 126.191 63.6203C126.872 64.1894 126.927 64.5148 126.927 64.6151C126.927 64.7155 126.872 65.0408 126.191 65.6099C125.527 66.1652 124.486 66.7628 123.06 67.4132C120.71 68.4857 117.614 69.5724 114.072 70.8153C113.32 71.0793 112.548 71.3503 111.759 71.6297C102.904 74.7644 92.0168 78.9034 85.1526 85.7677C78.283 92.6373 74.2608 103.534 71.1865 112.382C70.9654 113.019 70.7494 113.644 70.5378 114.257C69.2521 117.979 68.1297 121.228 66.9986 123.667C66.3401 125.087 65.7274 126.121 65.1506 126.78C64.5719 127.442 64.1981 127.542 64 127.542Z"
              stroke="#F55E1D" stroke-width="3"/>
    </g>
</svg>
