<svg width="72" height="65" viewBox="0 0 72 65" fill="none" xmlns="http://www.w3.org/2000/svg">
<path d="M72 32.4591C72 28.9591 68.7182 26.2591 64.0442 26.2591C61.7569 26.2591 58.0773 27.1591 52.9061 28.8591C47.7348 30.5591 42.9613 31.4591 38.6851 31.4591H37.3923C40.1768 27.0591 42.4641 24.0591 44.0552 22.6591C47.337 19.7591 56.6851 12.1591 56.6851 6.25913C56.6851 2.75912 54.1989 0.359131 51.2155 0.359131C49.5249 0.359131 48.0331 1.05913 46.5414 2.45913C43.6575 5.25913 42.2652 11.4591 40.674 18.7591C39.8784 22.4591 38.3867 26.3591 36 30.6591C33.6133 26.2591 32.0221 22.2591 31.2265 18.4591C30.4309 14.7591 29.6354 11.4591 28.7403 8.65913C26.8508 2.85913 23.9669 0.359131 20.5856 0.359131C17.5028 0.359131 15.3149 2.75912 15.3149 5.95913C15.3149 7.95913 15.9116 9.85913 17.2044 11.7591C18.3978 13.5591 21.5801 16.8591 26.7514 21.5591C31.4254 26.4591 31.0276 25.7591 34.6077 31.4591C29.8343 31.4591 24.7624 30.5591 19.4917 28.7591C14.221 26.9591 10.3425 26.0591 7.9558 26.0591C3.18232 26.0591 0 28.7591 0 32.2591C0 35.8591 3.38121 38.4591 7.9558 38.4591C11.4365 38.4591 18.895 35.9591 23.6685 34.3591C26.0552 33.5591 29.337 33.2591 33.3149 33.2591H34.6077C32.221 37.2591 29.7348 40.3591 27.2486 42.5591C22.2762 46.9591 15.3149 53.1591 15.3149 58.4591C15.3149 61.9591 17.6022 64.3591 20.5856 64.3591C22.2762 64.3591 23.8674 63.6591 25.3591 62.3591C28.3425 59.7591 29.6354 53.7591 31.2265 46.2591C32.0221 42.4591 33.6133 38.3591 36 34.0591C38.3867 38.2591 39.9779 42.2591 40.674 45.8591C41.3702 49.5591 42.2652 52.8591 43.0608 55.7591C44.6519 61.6591 47.9337 64.3591 51.2155 64.3591C54.1989 64.3591 56.6851 61.7591 56.6851 58.5591C56.6851 53.3591 51.2155 48.4591 45.6464 43.4591C42.8619 40.9591 40.0773 37.6591 37.3923 33.2591C42.5635 33.2591 47.5359 34.1591 52.7072 35.9591C57.779 37.7591 61.558 38.6591 64.0442 38.6591C68.5193 38.6591 72 36.1591 72 32.4591Z" fill="black"/>
</svg>
