<svg width="84" height="57" viewBox="0 0 84 57" fill="none" xmlns="http://www.w3.org/2000/svg">
<path d="M40.004 0.738998H43.143C77.307 0.738998 81.322 17.894 81.322 27.603V29.793C81.322 39.356 77.38 56.949 43.143 56.949H40.004C5.621 56.949 1.752 39.356 1.752 29.793V27.603C1.752 17.894 5.621 0.738998 40.004 0.738998ZM63.51 28.114C63.51 21.836 59.86 13.879 41.537 13.879C22.922 13.879 19.564 21.836 19.564 28.114V28.99C19.564 35.195 23.214 43.736 41.537 43.736C59.787 43.736 63.51 35.414 63.51 29.136V28.114Z" fill="black"/>
</svg>
