<svg width="553" height="65" viewBox="0 0 553 65" fill="none" xmlns="http://www.w3.org/2000/svg">
<mask id="path-1-outside-1_7702_12907" maskUnits="userSpaceOnUse" x="5" y="5" width="553" height="63" fill="black">
<rect fill="white" x="5" y="5" width="553" height="63"/>
<path d="M37.127 64.803C14.497 64.803 8.292 51.59 8.292 41.297V40.859H25.52C25.739 43.268 26.907 51.298 38.66 51.298H39.536C48.442 51.298 52.603 46.115 52.603 37.866V9.688H69.685V38.304C69.685 49.546 64.356 64.803 41.215 64.803H37.127ZM112.948 8.739H116.087C150.251 8.739 154.266 25.894 154.266 35.603V37.793C154.266 47.356 150.324 64.949 116.087 64.949H112.948C78.5653 64.949 74.6963 47.356 74.6963 37.793V35.603C74.6963 25.894 78.5653 8.739 112.948 8.739ZM136.454 36.114C136.454 29.836 132.804 21.879 114.481 21.879C95.8663 21.879 92.5083 29.836 92.5083 36.114V36.99C92.5083 43.195 96.1583 51.736 114.481 51.736C132.731 51.736 136.454 43.414 136.454 37.136V36.114ZM176.947 64H159.938V9.688H176.947V32.318L204.76 9.688H226.368L195.124 34.508L227.828 64H205.636L176.947 38.377V64ZM247.167 9.688V64H230.158V9.688H247.167ZM302.679 64.803C280.049 64.803 273.844 51.59 273.844 41.297V40.859H291.072C291.291 43.268 292.459 51.298 304.212 51.298H305.088C313.994 51.298 318.155 46.115 318.155 37.866V9.688H335.237V38.304C335.237 49.546 329.908 64.803 306.767 64.803H302.679ZM378.5 8.739H381.639C415.803 8.739 419.818 25.894 419.818 35.603V37.793C419.818 47.356 415.876 64.949 381.639 64.949H378.5C344.117 64.949 340.248 47.356 340.248 37.793V35.603C340.248 25.894 344.117 8.739 378.5 8.739ZM402.006 36.114C402.006 29.836 398.356 21.879 380.033 21.879C361.418 21.879 358.06 29.836 358.06 36.114V36.99C358.06 43.195 361.71 51.736 380.033 51.736C398.283 51.736 402.006 43.414 402.006 37.136V36.114ZM442.575 64V42.976L413.521 9.688H434.618L451.481 29.69L468.636 9.688H487.835L459.584 42.976V64H442.575ZM522.465 41.808L511.953 21.441L501.879 41.808H522.465ZM533.853 64L528.743 54.072H495.82L490.929 64H473.628L501.076 9.688H523.122L552.176 64H533.853Z"/>
</mask>
<path d="M8.292 40.859V37.859H5.292V40.859H8.292ZM25.52 40.859L28.5077 40.5874L28.2596 37.859H25.52V40.859ZM52.603 9.688V6.688H49.603V9.688H52.603ZM69.685 9.688H72.685V6.688H69.685V9.688ZM37.127 61.803C26.4095 61.803 20.0704 58.6917 16.3936 54.8388C12.6749 50.9419 11.292 45.8814 11.292 41.297H5.292C5.292 47.0056 7.0116 53.6981 12.0529 58.981C17.1361 64.3078 25.2145 67.803 37.127 67.803V61.803ZM11.292 41.297V40.859H5.292V41.297H11.292ZM8.292 43.859H25.52V37.859H8.292V43.859ZM22.5323 41.1306C22.6563 42.4939 23.0665 45.8159 25.3932 48.8191C27.8417 51.9798 32.0168 54.298 38.66 54.298V48.298C33.5502 48.298 31.2648 46.6012 30.1363 45.1446C28.886 43.5306 28.6027 41.6331 28.5077 40.5874L22.5323 41.1306ZM38.66 54.298H39.536V48.298H38.66V54.298ZM39.536 54.298C44.5754 54.298 48.7399 52.8154 51.611 49.7131C54.4448 46.6512 55.603 42.4575 55.603 37.866H49.603C49.603 41.5235 48.6807 44.0458 47.2075 45.6377C45.7716 47.1891 43.4026 48.298 39.536 48.298V54.298ZM55.603 37.866V9.688H49.603V37.866H55.603ZM52.603 12.688H69.685V6.688H52.603V12.688ZM66.685 9.688V38.304H72.685V9.688H66.685ZM66.685 38.304C66.685 43.5223 65.4384 49.3819 61.796 53.8818C58.2499 58.2628 52.0691 61.803 41.215 61.803V67.803C53.5019 67.803 61.5561 63.7147 66.4597 57.6567C71.2671 51.7175 72.685 44.3277 72.685 38.304H66.685ZM41.215 61.803H37.127V67.803H41.215V61.803ZM112.948 11.739H116.087V5.739H112.948V11.739ZM116.087 11.739C132.71 11.739 141.322 15.9106 145.823 20.6061C150.335 25.3135 151.266 31.1171 151.266 35.603H157.266C157.266 30.3799 156.19 22.7515 150.154 16.4542C144.106 10.1449 133.628 5.739 116.087 5.739V11.739ZM151.266 35.603V37.793H157.266V35.603H151.266ZM151.266 37.793C151.266 42.2106 150.351 48.0993 145.831 52.9009C141.335 57.6782 132.728 61.949 116.087 61.949V67.949C133.684 67.949 144.167 63.4233 150.2 57.0133C156.211 50.6277 157.266 42.9384 157.266 37.793H151.266ZM116.087 61.949H112.948V67.949H116.087V61.949ZM112.948 61.949C96.2309 61.949 87.6079 57.676 83.1132 52.9009C78.5968 48.1028 77.6963 42.2178 77.6963 37.793H71.6963C71.6963 42.9311 72.7303 50.6242 78.7442 57.0133C84.7798 63.4255 95.2828 67.949 112.948 67.949V61.949ZM77.6963 37.793V35.603H71.6963V37.793H77.6963ZM77.6963 35.603C77.6963 31.102 78.5981 25.3051 83.0962 20.6042C87.5844 15.9138 96.2095 11.739 112.948 11.739V5.739C95.3042 5.739 84.8033 10.1417 78.7612 16.456C72.7291 22.7599 71.6963 30.395 71.6963 35.603H77.6963ZM139.454 36.114C139.454 32.3869 138.351 27.8803 134.303 24.3745C130.336 20.939 124.01 18.879 114.481 18.879V24.879C123.275 24.879 127.936 26.7975 130.375 28.91C132.733 30.9522 133.454 33.5631 133.454 36.114H139.454ZM114.481 18.879C104.822 18.879 98.479 20.9325 94.5373 24.3857C90.5084 27.9154 89.5083 32.4398 89.5083 36.114H95.5083C95.5083 33.5102 96.1872 30.9171 98.4911 28.8988C100.882 26.804 105.526 24.879 114.481 24.879V18.879ZM89.5083 36.114V36.99H95.5083V36.114H89.5083ZM89.5083 36.99C89.5083 40.6713 90.6042 45.273 94.606 48.91C98.5642 52.5073 104.903 54.736 114.481 54.736V48.736C105.736 48.736 101.089 46.6942 98.6414 44.4698C96.2374 42.285 95.5083 39.5137 95.5083 36.99H89.5083ZM114.481 54.736C124.008 54.736 130.34 52.5692 134.309 49.029C138.333 45.4392 139.454 40.8651 139.454 37.136H133.454C133.454 39.6849 132.714 42.4108 130.315 44.5515C127.859 46.7418 123.205 48.736 114.481 48.736V54.736ZM139.454 37.136V36.114H133.454V37.136H139.454ZM176.947 64V67H179.947V64H176.947ZM159.938 64H156.938V67H159.938V64ZM159.938 9.688V6.688H156.938V9.688H159.938ZM176.947 9.688H179.947V6.688H176.947V9.688ZM176.947 32.318H173.947V38.6265L178.84 34.645L176.947 32.318ZM204.76 9.688V6.688H203.694L202.867 7.36097L204.76 9.688ZM226.368 9.688L228.234 12.037L234.968 6.688H226.368V9.688ZM195.124 34.508L193.258 32.159L190.484 34.363L193.115 36.7359L195.124 34.508ZM227.828 64V67H235.634L229.837 61.7721L227.828 64ZM205.636 64L203.638 66.2375L204.491 67H205.636V64ZM176.947 38.377L178.945 36.1395L173.947 31.6753V38.377H176.947ZM176.947 61H159.938V67H176.947V61ZM162.938 64V9.688H156.938V64H162.938ZM159.938 12.688H176.947V6.688H159.938V12.688ZM173.947 9.688V32.318H179.947V9.688H173.947ZM178.84 34.645L206.653 12.015L202.867 7.36097L175.054 29.991L178.84 34.645ZM204.76 12.688H226.368V6.688H204.76V12.688ZM224.502 7.33898L193.258 32.159L196.99 36.857L228.234 12.037L224.502 7.33898ZM193.115 36.7359L225.819 66.2279L229.837 61.7721L197.133 32.2801L193.115 36.7359ZM227.828 61H205.636V67H227.828V61ZM207.634 61.7625L178.945 36.1395L174.949 40.6145L203.638 66.2375L207.634 61.7625ZM173.947 38.377V64H179.947V38.377H173.947ZM247.167 9.688H250.167V6.688H247.167V9.688ZM247.167 64V67H250.167V64H247.167ZM230.158 64H227.158V67H230.158V64ZM230.158 9.688V6.688H227.158V9.688H230.158ZM244.167 9.688V64H250.167V9.688H244.167ZM247.167 61H230.158V67H247.167V61ZM233.158 64V9.688H227.158V64H233.158ZM230.158 12.688H247.167V6.688H230.158V12.688ZM273.844 40.859V37.859H270.844V40.859H273.844ZM291.072 40.859L294.059 40.5874L293.811 37.859H291.072V40.859ZM318.155 9.688V6.688H315.155V9.688H318.155ZM335.237 9.688H338.237V6.688H335.237V9.688ZM302.679 61.803C291.961 61.803 285.622 58.6917 281.945 54.8388C278.227 50.9419 276.844 45.8814 276.844 41.297H270.844C270.844 47.0056 272.563 53.6981 277.605 58.981C282.688 64.3078 290.766 67.803 302.679 67.803V61.803ZM276.844 41.297V40.859H270.844V41.297H276.844ZM273.844 43.859H291.072V37.859H273.844V43.859ZM288.084 41.1306C288.208 42.4939 288.618 45.8159 290.945 48.8191C293.393 51.9798 297.569 54.298 304.212 54.298V48.298C299.102 48.298 296.817 46.6012 295.688 45.1446C294.438 43.5306 294.155 41.6331 294.059 40.5874L288.084 41.1306ZM304.212 54.298H305.088V48.298H304.212V54.298ZM305.088 54.298C310.127 54.298 314.292 52.8154 317.163 49.7131C319.997 46.6512 321.155 42.4575 321.155 37.866H315.155C315.155 41.5235 314.232 44.0458 312.759 45.6377C311.323 47.1891 308.954 48.298 305.088 48.298V54.298ZM321.155 37.866V9.688H315.155V37.866H321.155ZM318.155 12.688H335.237V6.688H318.155V12.688ZM332.237 9.688V38.304H338.237V9.688H332.237ZM332.237 38.304C332.237 43.5223 330.99 49.3819 327.348 53.8818C323.802 58.2628 317.621 61.803 306.767 61.803V67.803C319.054 67.803 327.108 63.7147 332.011 57.6567C336.819 51.7175 338.237 44.3277 338.237 38.304H332.237ZM306.767 61.803H302.679V67.803H306.767V61.803ZM378.5 11.739H381.639V5.739H378.5V11.739ZM381.639 11.739C398.262 11.739 406.874 15.9106 411.374 20.6061C415.887 25.3135 416.818 31.1171 416.818 35.603H422.818C422.818 30.3799 421.742 22.7515 415.706 16.4542C409.658 10.1449 399.18 5.739 381.639 5.739V11.739ZM416.818 35.603V37.793H422.818V35.603H416.818ZM416.818 37.793C416.818 42.2106 415.903 48.0993 411.383 52.9009C406.886 57.6782 398.279 61.949 381.639 61.949V67.949C399.236 67.949 409.718 63.4233 415.752 57.0133C421.763 50.6277 422.818 42.9384 422.818 37.793H416.818ZM381.639 61.949H378.5V67.949H381.639V61.949ZM378.5 61.949C361.783 61.949 353.16 57.676 348.665 52.9009C344.149 48.1028 343.248 42.2178 343.248 37.793H337.248C337.248 42.9311 338.282 50.6242 344.296 57.0133C350.332 63.4255 360.835 67.949 378.5 67.949V61.949ZM343.248 37.793V35.603H337.248V37.793H343.248ZM343.248 35.603C343.248 31.102 344.15 25.3051 348.648 20.6042C353.136 15.9138 361.761 11.739 378.5 11.739V5.739C360.856 5.739 350.355 10.1417 344.313 16.456C338.281 22.7599 337.248 30.395 337.248 35.603H343.248ZM405.006 36.114C405.006 32.3869 403.903 27.8803 399.855 24.3745C395.888 20.939 389.562 18.879 380.033 18.879V24.879C388.827 24.879 393.488 26.7975 395.927 28.91C398.285 30.9522 399.006 33.5631 399.006 36.114H405.006ZM380.033 18.879C370.373 18.879 364.031 20.9325 360.089 24.3857C356.06 27.9154 355.06 32.4398 355.06 36.114H361.06C361.06 33.5102 361.739 30.9171 364.043 28.8988C366.434 26.804 371.078 24.879 380.033 24.879V18.879ZM355.06 36.114V36.99H361.06V36.114H355.06ZM355.06 36.99C355.06 40.6713 356.156 45.273 360.158 48.91C364.116 52.5073 370.455 54.736 380.033 54.736V48.736C371.288 48.736 366.641 46.6942 364.193 44.4698C361.789 42.285 361.06 39.5137 361.06 36.99H355.06ZM380.033 54.736C389.56 54.736 395.892 52.5692 399.86 49.029C403.885 45.4392 405.006 40.8651 405.006 37.136H399.006C399.006 39.6849 398.266 42.4108 395.866 44.5515C393.411 46.7418 388.757 48.736 380.033 48.736V54.736ZM405.006 37.136V36.114H399.006V37.136H405.006ZM442.575 64H439.575V67H442.575V64ZM442.575 42.976H445.575V41.8509L444.835 41.0033L442.575 42.976ZM413.521 9.688V6.688H406.92L411.261 11.6607L413.521 9.688ZM434.618 9.688L436.911 7.7543L436.012 6.688H434.618V9.688ZM451.481 29.69L449.187 31.6237L451.461 34.321L453.758 31.6431L451.481 29.69ZM468.636 9.688V6.688H467.256L466.359 7.73494L468.636 9.688ZM487.835 9.688L490.122 11.6292L494.316 6.688H487.835V9.688ZM459.584 42.976L457.296 41.0348L456.584 41.8746V42.976H459.584ZM459.584 64V67H462.584V64H459.584ZM445.575 64V42.976H439.575V64H445.575ZM444.835 41.0033L415.781 7.71529L411.261 11.6607L440.315 44.9487L444.835 41.0033ZM413.521 12.688H434.618V6.688H413.521V12.688ZM432.324 11.6217L449.187 31.6237L453.774 27.7563L436.911 7.7543L432.324 11.6217ZM453.758 31.6431L470.913 11.6411L466.359 7.73494L449.204 27.7369L453.758 31.6431ZM468.636 12.688H487.835V6.688H468.636V12.688ZM485.547 7.7468L457.296 41.0348L461.871 44.9172L490.122 11.6292L485.547 7.7468ZM456.584 42.976V64H462.584V42.976H456.584ZM459.584 61H442.575V67H459.584V61ZM522.465 41.808V44.808H527.389L525.13 40.4321L522.465 41.808ZM511.953 21.441L514.618 20.0651L511.896 14.7896L509.264 20.1109L511.953 21.441ZM501.879 41.808L499.19 40.4779L497.048 44.808H501.879V41.808ZM533.853 64L531.185 65.3729L532.023 67H533.853V64ZM528.743 54.072L531.41 52.6991L530.573 51.072H528.743V54.072ZM495.82 54.072V51.072H493.953L493.129 52.7462L495.82 54.072ZM490.929 64V67H492.795L493.62 65.3258L490.929 64ZM473.628 64L470.95 62.6469L468.75 67H473.628V64ZM501.076 9.688V6.688H499.23L498.398 8.33485L501.076 9.688ZM523.122 9.688L525.767 8.27291L524.919 6.688H523.122V9.688ZM552.176 64V67H557.183L554.821 62.5849L552.176 64ZM525.13 40.4321L514.618 20.0651L509.287 22.8169L519.799 43.1839L525.13 40.4321ZM509.264 20.1109L499.19 40.4779L504.568 43.1381L514.642 22.7711L509.264 20.1109ZM501.879 44.808H522.465V38.808H501.879V44.808ZM536.52 62.6271L531.41 52.6991L526.075 55.4449L531.185 65.3729L536.52 62.6271ZM528.743 51.072H495.82V57.072H528.743V51.072ZM493.129 52.7462L488.237 62.6742L493.62 65.3258L498.511 55.3978L493.129 52.7462ZM490.929 61H473.628V67H490.929V61ZM476.305 65.3531L503.753 11.0411L498.398 8.33485L470.95 62.6469L476.305 65.3531ZM501.076 12.688H523.122V6.688H501.076V12.688ZM520.476 11.1031L549.53 65.4151L554.821 62.5849L525.767 8.27291L520.476 11.1031ZM552.176 61H533.853V67H552.176V61Z" fill="#ABEC20" mask="url(#path-1-outside-1_7702_12907)"/>
<path d="M29.127 56.803C6.497 56.803 0.292 43.59 0.292 33.297V32.859H17.52C17.739 35.268 18.907 43.298 30.66 43.298H31.536C40.442 43.298 44.603 38.115 44.603 29.866V1.688H61.685V30.304C61.685 41.546 56.356 56.803 33.215 56.803H29.127ZM104.948 0.738998H108.087C142.251 0.738998 146.266 17.894 146.266 27.603V29.793C146.266 39.356 142.324 56.949 108.087 56.949H104.948C70.5653 56.949 66.6963 39.356 66.6963 29.793V27.603C66.6963 17.894 70.5653 0.738998 104.948 0.738998ZM128.454 28.114C128.454 21.836 124.804 13.879 106.481 13.879C87.8663 13.879 84.5083 21.836 84.5083 28.114V28.99C84.5083 35.195 88.1583 43.736 106.481 43.736C124.731 43.736 128.454 35.414 128.454 29.136V28.114ZM168.947 56H151.938V1.688H168.947V24.318L196.76 1.688H218.368L187.124 26.508L219.828 56H197.636L168.947 30.377V56ZM239.167 1.688V56H222.158V1.688H239.167ZM294.679 56.803C272.049 56.803 265.844 43.59 265.844 33.297V32.859H283.072C283.291 35.268 284.459 43.298 296.212 43.298H297.088C305.994 43.298 310.155 38.115 310.155 29.866V1.688H327.237V30.304C327.237 41.546 321.908 56.803 298.767 56.803H294.679ZM370.5 0.738998H373.639C407.803 0.738998 411.818 17.894 411.818 27.603V29.793C411.818 39.356 407.876 56.949 373.639 56.949H370.5C336.117 56.949 332.248 39.356 332.248 29.793V27.603C332.248 17.894 336.117 0.738998 370.5 0.738998ZM394.006 28.114C394.006 21.836 390.356 13.879 372.033 13.879C353.418 13.879 350.06 21.836 350.06 28.114V28.99C350.06 35.195 353.71 43.736 372.033 43.736C390.283 43.736 394.006 35.414 394.006 29.136V28.114ZM434.575 56V34.976L405.521 1.688H426.618L443.481 21.69L460.636 1.688H479.835L451.584 34.976V56H434.575ZM514.465 33.808L503.953 13.441L493.879 33.808H514.465ZM525.853 56L520.743 46.072H487.82L482.929 56H465.628L493.076 1.688H515.122L544.176 56H525.853Z" fill="#0267FF"/>
</svg>
