<svg width="18" height="19" viewBox="0 0 18 19" fill="none" xmlns="http://www.w3.org/2000/svg">
<g clip-path="url(#clip0_9721_658)">
<path d="M9 1.03976C5.68456 1.03976 3 3.82237 3 7.25889V7.28672C3 9.65552 5.6215 14.0439 7.39112 16.7364C8.14431 17.8824 9.77999 17.8684 10.5204 16.7141C12.3061 13.9305 15 9.3797 15 7.25889C15 3.82237 12.3154 1.03976 9 1.03976ZM9 10.2015C7.46309 10.2015 6.21477 8.90759 6.21477 7.31455C6.21477 5.7215 7.46309 4.42759 9 4.42759C10.5369 4.42759 11.7852 5.7215 11.7852 7.31455C11.7852 8.90759 10.5369 10.2015 9 10.2015Z" fill="#5834A4"/>
</g>
<defs>
<clipPath id="clip0_9721_658">
<rect width="18" height="18" fill="white" transform="translate(0 0.0397644)"/>
</clipPath>
</defs>
</svg>
