<svg width="40" height="41" viewBox="0 0 40 41" fill="none" xmlns="http://www.w3.org/2000/svg">
<rect x="8" width="32" height="4" fill="#0267FF"/>
<rect x="18" y="10" width="22" height="4" fill="#0267FF"/>
<rect x="8" y="20" width="32" height="4" fill="#0267FF"/>
<path d="M8.39279 40L8.38179 35.391L6.11579 39.186H5.32379L3.05779 35.479V40H1.38579V32.3H2.85979L5.74179 37.085L8.57979 32.3H10.0538L10.0648 40H8.39279ZM18.0496 38.57V40H12.0876V32.3H17.9066V33.73H13.8586V35.402H17.4336V36.788H13.8586V38.57H18.0496ZM26.661 32.3V40H24.879V36.843H21.381V40H19.599V32.3H21.381V35.336H24.879V32.3H26.661ZM35.4982 32.168C36.2682 32.168 36.9612 32.3403 37.5772 32.685C38.2005 33.0297 38.6882 33.5063 39.0402 34.115C39.3922 34.7163 39.5682 35.3947 39.5682 36.15C39.5682 36.9053 39.3922 37.5873 39.0402 38.196C38.6882 38.7973 38.2005 39.2703 37.5772 39.615C36.9612 39.9597 36.2682 40.132 35.4982 40.132C34.8088 40.132 34.1782 39.9963 33.6062 39.725C33.0342 39.4463 32.5612 39.0613 32.1872 38.57C31.8205 38.0713 31.5858 37.503 31.4832 36.865H30.4712V40H28.7002V32.3H30.4712V35.325H31.5052C31.6225 34.709 31.8645 34.1627 32.2312 33.686C32.6052 33.202 33.0745 32.828 33.6392 32.564C34.2038 32.3 34.8235 32.168 35.4982 32.168ZM35.4982 38.614C35.9235 38.614 36.3085 38.5113 36.6532 38.306C36.9978 38.1007 37.2692 37.811 37.4672 37.437C37.6652 37.063 37.7642 36.634 37.7642 36.15C37.7642 35.666 37.6652 35.237 37.4672 34.863C37.2692 34.489 36.9978 34.1993 36.6532 33.994C36.3085 33.7887 35.9235 33.686 35.4982 33.686C35.0728 33.686 34.6878 33.7887 34.3432 33.994C33.9985 34.1993 33.7272 34.489 33.5292 34.863C33.3312 35.237 33.2322 35.666 33.2322 36.15C33.2322 36.634 33.3312 37.063 33.5292 37.437C33.7272 37.811 33.9985 38.1007 34.3432 38.306C34.6878 38.5113 35.0728 38.614 35.4982 38.614Z" fill="#0267FF"/>
</svg>
