<svg width="19" height="18" viewBox="0 0 19 18" fill="none" xmlns="http://www.w3.org/2000/svg">
<path d="M1.77805 5.68929C1.7871 4.12448 2.35753 2.79215 3.42958 1.65297C3.80624 1.25417 4.20282 0.883977 4.71168 0.655067C5.34006 0.374295 5.82357 0.470867 6.27991 0.976972C6.98072 1.75312 7.59099 2.58828 7.96222 3.57188C8.13607 4.03328 8.23205 4.50898 8.06725 4.9972C7.98758 5.23147 7.85176 5.43177 7.65437 5.58915C7.27228 5.89496 6.8938 6.20434 6.50808 6.50836C5.94309 6.95187 5.78735 7.55813 6.0789 8.26095C6.36683 8.95841 6.79963 9.56824 7.25417 10.1656C7.91333 11.0311 8.6902 11.7894 9.53588 12.4725C9.79484 12.6818 10.0991 12.8606 10.4105 12.9786C11.0371 13.2165 11.6021 13.0502 12.0403 12.5441C12.3301 12.2096 12.6325 11.8949 13.0182 11.6696C13.7552 11.2386 14.4778 11.235 15.184 11.7411C15.9084 12.2615 16.6219 12.7962 17.2466 13.4329C17.5382 13.7298 17.7609 14.0606 17.7772 14.4898C17.7863 14.742 17.7211 14.978 17.5581 15.1712C16.3521 16.6072 14.8472 17.4728 12.9168 17.4996C12.1381 17.5103 11.4011 17.2993 10.6786 17.0382C9.34212 16.5536 8.14693 15.8311 7.12741 14.8546C5.7457 13.5277 4.44367 12.1202 3.39517 10.5196C2.61106 9.31608 2.03157 8.00879 1.85048 6.5638C1.81427 6.27409 1.80159 5.9808 1.77805 5.68929V5.68929Z" fill="#5834A4"/>
</svg>
